<svg xmlns="http://www.w3.org/2000/svg" width="24" height="24" viewBox="0 0 24 24">
    <g fill="none" fill-rule="evenodd">
        <g>
            <g>
                <path fill="#384202" d="M4.5 3c0 2.607.938 4.57 2.303 6.07 1.095 1.201 2.449 2.104 3.814 2.965-1.36.85-2.713 1.752-3.808 2.942C5.443 16.465 4.5 18.416 4.5 21H6c0-2.238.744-3.732 1.91-5.01 1.172-1.271 2.795-2.28 4.483-3.322 1.687-1.037 3.439-2.104 4.804-3.598C18.557 7.57 19.5 5.607 19.5 3h-12c0 .55.076 1.037.182 1.5h10.19c-.095.545-.253 1.043-.446 1.5H8.273c.317.54.733 1.031 1.23 1.5h7.02c-.146.188-.275.38-.439.557-.299.328-.633.644-.99.943h-3.656c.533.363 1.107.727 1.734 1.113l.21.13c-.45.304-.907.603-1.382.902-1.541-.956-3.012-1.91-4.09-3.088C6.744 6.773 6 5.262 6 3H4.5zm10.166 9.926c-.469.304-.943.592-1.412.873.006.006.017.012.03.017l-.112.07c-.627.387-1.201.75-1.735 1.114h3.493c.568.457 1.078.955 1.517 1.5H9.504c-.498.469-.914.96-1.23 1.5h9.093c.205.463.375.955.48 1.5H7.683c-.106.463-.182.95-.182 1.5h12c0-4.031-2.191-6.275-4.834-8.074z" transform="translate(-12 -12) translate(12 12)"/>
                <path d="M0 0H24V24H0z" transform="translate(-12 -12) translate(12 12)"/>
            </g>
        </g>
    </g>
</svg>
