
<svg width="72" height="72" viewBox="0 0 72 72" fill="none" xmlns="http://www.w3.org/2000/svg">
<rect width="72" height="72" rx="36" fill="var(--circle-color)"/>
<rect x="1.5" y="1.5" width="69" height="69" rx="34.5" stroke="var(--border-color)" stroke-opacity="0.88" stroke-width="3"/>
<path fill-rule="evenodd" clip-rule="evenodd" d="M21 19C21 24.214 22.876 28.14 25.606 31.14C27.796 33.542 30.504 35.348 33.234 37.07C30.514 38.77 27.808 40.574 25.618 42.954C22.886 45.93 21 49.832 21 55H24C24 50.524 25.488 47.536 27.82 44.98C30.164 42.438 33.41 40.42 36.786 38.336C40.16 36.262 43.664 34.128 46.394 31.14C49.114 28.14 51 24.214 51 19H27C27 20.1 27.152 21.074 27.364 22H47.744C47.554 23.09 47.238 24.086 46.852 25H28.546C29.18 26.08 30.012 27.062 31.006 28H45.046C44.754 28.376 44.496 28.76 44.168 29.114C43.57 29.77 42.902 30.402 42.188 31H34.876C35.942 31.726 37.09 32.454 38.344 33.226L38.764 33.486C37.864 34.094 36.95 34.692 36 35.29C32.918 33.378 29.976 31.47 27.82 29.114C25.488 26.546 24 23.524 24 19H21ZM41.332 38.852C40.394 39.46 39.446 40.036 38.508 40.598C38.52 40.61 38.542 40.622 38.568 40.632L38.344 40.772C37.09 41.546 35.942 42.272 34.874 43H41.86C42.996 43.914 44.016 44.91 44.894 46H31.008C30.012 46.938 29.18 47.92 28.548 49H46.734C47.144 49.926 47.484 50.91 47.694 52H27.366C27.154 52.926 27.002 53.9 27.002 55H51.002C51.002 46.938 46.62 42.45 41.334 38.852H41.332Z" fill="var(--svg-color)"/>
</svg>
