<svg xmlns="http://www.w3.org/2000/svg" width="24" height="24" viewBox="0 0 24 24">
    <g fill="none" fill-rule="evenodd">
        <g>
            <g>
                <path d="M0 0H24V24H0z" transform="translate(-12 -12) translate(12 12)"/>
                <path fill="#340014" d="M20.25 3c1.236 0 2.25 1.014 2.25 2.25v12c0 1.236-1.014 2.25-2.25 2.25h-8.771L6 23.15V19.5H3.75c-1.236 0-2.25-1.014-2.25-2.25v-12C1.5 4.014 2.514 3 3.75 3zm0 1.5H3.75c-.422 0-.75.328-.75.75v12c0 .422.328.75.75.75H7.5v2.35L11.021 18h9.229c.422 0 .75-.328.75-.75v-12c0-.422-.328-.75-.75-.75zM10.002 15c.336 0 .624-.276.624-.624 0-.336-.288-.612-.624-.612H6.474v-2.22h3.444c.336 0 .624-.276.624-.624 0-.336-.288-.612-.624-.612H6.474V8.232h3.528c.336 0 .624-.276.624-.612 0-.348-.288-.624-.624-.624H5.814c-.48 0-.744.264-.744.744v6.516c0 .48.264.744.744.744h4.188zm8.064.072c.48 0 .864-.396.864-.864V7.632c0-.384-.312-.708-.708-.708-.384 0-.696.324-.696.708v5.04l-3.864-5.364c-.168-.24-.444-.384-.744-.384-.516 0-.924.42-.924.924v6.516c0 .384.312.708.708.708.384 0 .696-.324.696-.708V9.168l3.972 5.544c.156.228.408.36.696.36z" transform="translate(-12 -12) translate(12 12)"/>
            </g>
        </g>
    </g>
</svg>
