
<svg width="72" height="72" viewBox="0 0 72 72" fill="none" xmlns="http://www.w3.org/2000/svg">
<rect width="72" height="72" rx="36" fill="white"/>
<rect x="1.5" y="1.5" width="69" height="69" rx="34.5" stroke="white" stroke-opacity="0.88" stroke-width="3"/>
<path fill-rule="evenodd" clip-rule="evenodd" d="M38.0002 17.5121C33.7742 17.5121 29.5502 19.1181 26.3342 22.3341C19.9042 28.7661 19.9022 39.2341 26.3342 45.6661C32.7662 52.0961 43.2342 52.0981 49.6662 45.6661C56.0962 39.2341 56.0982 28.7661 49.6662 22.3341C46.4502 19.1181 42.2262 17.5121 38.0002 17.5121ZM22.0922 18.0921C13.3162 26.8641 13.3202 41.1321 22.0922 49.9081C30.8642 58.6841 45.1322 58.6841 53.9082 49.9081L51.7882 47.7881C44.1582 55.4161 31.8382 55.4161 24.2122 47.7881C16.5862 40.1581 16.5842 27.8381 24.2122 20.2121L22.0922 18.0921ZM38.0002 20.4881C39.0902 20.4881 40.1702 20.6701 41.2342 20.9341L37.6362 24.5321C36.3622 23.6561 35.1042 22.9001 33.9102 22.3521C33.3862 22.1121 32.8842 21.9441 32.3802 21.7721C34.1662 20.9481 36.0742 20.4881 38.0002 20.4881ZM44.2882 22.1241C45.4482 22.7401 46.5662 23.4761 47.5442 24.4561C48.4062 25.3161 49.0742 26.2861 49.6542 27.2921L45.3602 31.5861C44.6282 30.7201 43.8522 29.8541 42.9982 29.0021C42.0282 28.0321 41.0442 27.1661 40.0582 26.3541L44.2882 22.1241ZM29.6602 24.1921C30.3982 24.2401 31.4582 24.5321 32.6602 25.0821C33.5282 25.4821 34.4802 26.0501 35.4662 26.7001L30.7002 31.4681C30.0502 30.4841 29.4802 29.5301 29.0822 28.6621C28.5302 27.4601 28.2402 26.4001 28.1922 25.6621C28.1442 24.9241 28.2982 24.6121 28.4562 24.4561C28.6122 24.2961 28.9242 24.1441 29.6622 24.1921H29.6602ZM25.7722 28.3741C25.9442 28.8801 26.1122 29.3841 26.3522 29.9101C26.9002 31.1041 27.6562 32.3621 28.5322 33.6361L24.9322 37.2361C24.2042 34.2861 24.4802 31.1721 25.7722 28.3761V28.3741ZM37.9182 28.4941C38.9042 29.2881 39.8982 30.1461 40.8782 31.1241C41.7362 31.9821 42.5022 32.8561 43.2202 33.7241L37.7242 39.2201C36.8562 38.5001 35.9822 37.7361 35.1242 36.8761C34.1442 35.9001 33.2882 34.9041 32.4922 33.9181L37.9182 28.4921V28.4941ZM50.9142 30.2741C51.8062 33.3621 51.5942 36.6701 50.2282 39.6241C50.0562 39.1201 49.8882 38.6161 49.6482 38.0901C49.0462 36.7741 48.2082 35.3861 47.2102 33.9761L50.9142 30.2741ZM30.3542 36.0561C31.1662 37.0441 32.0322 38.0281 33.0022 38.9981C33.8542 39.8521 34.7182 40.6281 35.5862 41.3581L31.2922 45.6541C30.2862 45.0741 29.3162 44.4061 28.4562 43.5441C27.4762 42.5641 26.7402 41.4481 26.1242 40.2881L30.3542 36.0561ZM45.0482 36.1381C45.8162 37.2641 46.4682 38.3561 46.9182 39.3381C47.4702 40.5401 47.7602 41.6001 47.8082 42.3381C47.8562 43.0761 47.7022 43.3881 47.5442 43.5441C47.3882 43.7041 47.0762 43.8561 46.3382 43.8081C45.6002 43.7601 44.5402 43.4681 43.3382 42.9181C42.3562 42.4681 41.2642 41.8181 40.1382 41.0481L45.0482 36.1381ZM37.9762 43.2101C39.3862 44.2101 40.7762 45.0461 42.0902 45.6501C42.6142 45.8901 43.1162 46.0561 43.6202 46.2301C40.6642 47.5901 37.3562 47.8121 34.2682 46.9201L37.9762 43.2101Z" fill="#DE3B76"/>
</svg>
