<svg xmlns="http://www.w3.org/2000/svg" width="24" height="24" viewBox="0 0 24 24">
    <g fill="none" fill-rule="evenodd">
        <g>
            <g>
                <path fill="#384202" d="M13.5 2.256c-2.113 0-4.225.803-5.833 2.411-3.215 3.216-3.216 8.45 0 11.666 3.216 3.215 8.45 3.216 11.666 0 3.215-3.216 3.216-8.45 0-11.666-1.608-1.608-3.72-2.411-5.833-2.411zm-7.954.29c-4.388 4.386-4.386 11.52 0 15.908s11.52 4.388 15.908 0l-1.06-1.06c-3.815 3.814-9.975 3.814-13.788 0-3.813-3.815-3.814-9.975 0-13.788l-1.06-1.06zM13.5 3.744c.545 0 1.085.091 1.617.223l-1.799 1.799c-.637-.438-1.266-.816-1.863-1.09-.262-.12-.513-.204-.765-.29.893-.412 1.847-.642 2.81-.642zm3.144.818c.58.308 1.139.676 1.628 1.166.431.43.765.915 1.055 1.418L17.18 9.293c-.366-.433-.754-.866-1.181-1.292-.485-.485-.977-.918-1.47-1.324l2.115-2.115zM9.33 5.596c.369.024.899.17 1.5.445.434.2.91.484 1.403.809L9.85 9.234c-.325-.492-.61-.969-.809-1.403-.276-.601-.421-1.131-.445-1.5-.024-.369.053-.525.132-.603.078-.08.234-.156.603-.132zM7.386 7.687c.086.253.17.505.29.768.274.597.652 1.226 1.09 1.863l-1.8 1.8c-.364-1.475-.226-3.032.42-4.43zm6.073.06c.493.397.99.826 1.48 1.315.429.429.812.866 1.171 1.3l-2.748 2.748c-.434-.36-.871-.742-1.3-1.172-.49-.488-.918-.986-1.316-1.479l2.713-2.713zm6.498.89c.446 1.544.34 3.198-.343 4.675-.086-.252-.17-.504-.29-.767-.301-.658-.72-1.352-1.219-2.057l1.852-1.851zm-10.28 2.891c.406.494.839.986 1.324 1.471.426.427.858.815 1.292 1.18l-2.147 2.148c-.503-.29-.988-.624-1.418-1.055-.49-.49-.858-1.048-1.166-1.628l2.115-2.116zm7.347.041c.384.563.71 1.109.935 1.6.276.601.421 1.131.445 1.5.024.369-.053.525-.132.603-.078.08-.234.156-.603.132-.369-.024-.899-.17-1.5-.445-.491-.225-1.037-.55-1.6-.935l2.455-2.455zm-3.536 3.536c.705.5 1.4.918 2.057 1.22.262.12.513.203.765.29-1.478.68-3.132.791-4.676.345l1.854-1.855z" transform="translate(-12 -12) translate(12 12)"/>
                <path d="M0 0H24V24H0z" transform="translate(-12 -12) translate(12 12)"/>
            </g>
        </g>
    </g>
</svg>
