<svg xmlns="http://www.w3.org/2000/svg" width="24" height="24" viewBox="0 0 24 24">
    <g fill="none" fill-rule="evenodd">
        <g>
            <g>
                <path fill="#030F23" d="M12 1.5c-2.062 0-3.75 1.688-3.75 3.75C8.25 7.312 9.938 9 12 9c2.062 0 3.75-1.688 3.75-3.75 0-2.062-1.688-3.75-3.75-3.75zM12 9c-2.333 0-3.932.39-4.966.803-1.033.413-1.564.917-1.564.917-.273.273-.294.71-.047 1.008 0 0 1.327 1.618 1.327 4.022 0 .414.336.75.75.75h.75V18H7.5c-.414 0-.75.336-.75.75v3c0 .414.336.75.75.75h9c.414 0 .75-.336.75-.75v-3c0-.414-.336-.75-.75-.75h-.75v-1.5h.75c.414 0 .75-.336.75-.75 0-2.21 1.348-4.049 1.348-4.049.225-.298.196-.717-.068-.981 0 0-.53-.504-1.564-.917C15.932 9.389 14.333 9 12 9zm0-6c1.252 0 2.25.998 2.25 2.25S13.252 7.5 12 7.5s-2.25-.998-2.25-2.25S10.748 3 12 3zm0 7.5c2.167 0 3.568.36 4.41.697.457.183.422.212.576.317-.399.632-.859 1.784-1.06 3.486H8.077c-.196-1.732-.64-2.863-1.052-3.492.156-.105.117-.131.566-.31.841-.337 2.242-.698 4.409-.698zm-2.25 6h4.5V18h-4.5v-1.5zm-1.5 3h7.5V21h-7.5v-1.5z" transform="translate(-12 -12) translate(12 12)"/>
                <path d="M0 0H24V24H0z" transform="translate(-12 -12) translate(12 12)"/>
            </g>
        </g>
    </g>
</svg>
