<svg xmlns="http://www.w3.org/2000/svg" width="24" height="24" viewBox="0 0 24 24">
    <g fill="none" fill-rule="evenodd">
                <path fill="#DE3B76" d="M17.25.75c3.314 0 6 2.686 6 6 0 2.259-1.248 4.226-3.093 5.25 1.845 1.024 3.093 2.991 3.093 5.25 0 3.314-2.686 6-6 6-2.259 0-4.226-1.248-5.25-3.093-1.024 1.845-2.991 3.093-5.25 3.093-3.314 0-6-2.686-6-6 0-2.259 1.248-4.226 3.093-5.25C1.998 10.976.75 9.01.75 6.75c0-3.314 2.686-6 6-6 2.259 0 4.226 1.248 5.25 3.093C13.024 1.998 14.99.75 17.25.75zm-10.5 12c-2.485 0-4.5 2.015-4.5 4.5s2.015 4.5 4.5 4.5 4.5-2.015 4.5-4.5-2.015-4.5-4.5-4.5zm10.5 0c-2.485 0-4.5 2.015-4.5 4.5s2.015 4.5 4.5 4.5 4.5-2.015 4.5-4.5-2.015-4.5-4.5-4.5zM19.5 18v1.5H15V18h4.5zM7.91 15.035l1.055 1.055-1.154 1.16 1.154 1.154-1.055 1.067-1.16-1.16-1.16 1.16-1.055-1.067L5.69 17.25l-1.154-1.16 1.055-1.055 1.16 1.154 1.16-1.154zM19.5 15v1.5H15V15h4.5zM12 9.657l-.105.182c-.543.902-1.316 1.65-2.238 2.16.983.547 1.797 1.36 2.343 2.344.546-.983 1.36-1.797 2.343-2.343-.983-.546-1.797-1.36-2.343-2.343zM6.75 2.25c-2.485 0-4.5 2.015-4.5 4.5s2.015 4.5 4.5 4.5 4.5-2.015 4.5-4.5-2.015-4.5-4.5-4.5zm10.5 0c-2.485 0-4.5 2.015-4.5 4.5s2.015 4.5 4.5 4.5 4.5-2.015 4.5-4.5-2.015-4.5-4.5-4.5zM7.5 4.5V6H9v1.5H7.5V9H6V7.5H4.5V6H6V4.5h1.5zm12 1.5v1.5H15V6h4.5z" transform="translate(-12 -12) translate(12 12)"/>
                <path d="M0 0H24V24H0z" transform="translate(-12 -12) translate(12 12)"/>
    </g>
</svg>
