
<svg width="48" height="48" viewBox="0 0 48 48" fill="none" xmlns="http://www.w3.org/2000/svg">
<path fill-rule="evenodd" clip-rule="evenodd" d="M24 3C20.708 3 18 5.708 18 9C18 10.64 18.668 12.14 19.758 13.23V13.242C19.09 13.664 18.504 14.202 17.978 14.812C17.88 11.602 15.232 9 12 9C8.708 9 6 11.708 6 15C6 16.606 6.656 18.07 7.688 19.148C4.91 20.684 3 23.614 3 27H6C6 23.672 8.672 21 12 21C13.36 21 14.59 21.446 15.598 22.196L18 24V21C18 17.672 20.672 15 24 15C27.328 15 30 17.672 30 21V24L32.402 22.196C33.41 21.446 34.642 21 36 21C39.328 21 42 23.672 42 27H45C45 23.614 43.09 20.684 40.312 19.148C41.344 18.07 42 16.606 42 15C42 11.708 39.292 9 36 9C32.766 9 30.118 11.6 30.012 14.812C29.496 14.204 28.912 13.652 28.242 13.232C29.332 12.14 30 10.64 30 9C30 5.708 27.292 3 24 3ZM24 6C25.676 6 27 7.324 27 9C27 10.676 25.676 12 24 12C22.324 12 21 10.676 21 9C21 7.324 22.324 6 24 6ZM12 12C13.676 12 15 13.324 15 15C15 16.676 13.676 18 12 18C10.324 18 9 16.676 9 15C9 13.324 10.324 12 12 12ZM36 12C37.676 12 39 13.324 39 15C39 16.676 37.676 18 36 18C34.324 18 33 16.676 33 15C33 13.324 34.324 12 36 12ZM15 24C11.708 24 9 26.708 9 30C9 31.606 9.656 33.07 10.688 34.148C7.91 35.684 6 38.614 6 42H9C9 38.672 11.672 36 15 36C18.328 36 21 38.672 21 42H24C24 38.614 22.09 35.684 19.312 34.148C20.344 33.07 21 31.606 21 30C21 26.708 18.292 24 15 24V24ZM24 42H27C27 38.672 29.672 36 33 36C36.328 36 39 38.672 39 42H42C42 38.614 40.09 35.684 37.312 34.148C38.344 33.07 39 31.606 39 30C39 26.708 36.292 24 33 24C29.708 24 27 26.708 27 30C27 31.606 27.656 33.07 28.688 34.148C25.91 35.684 24 38.614 24 42ZM15 27C16.676 27 18 28.324 18 30C18 31.676 16.676 33 15 33C13.324 33 12 31.676 12 30C12 28.324 13.324 27 15 27ZM33 27C34.676 27 36 28.324 36 30C36 31.676 34.676 33 33 33C31.324 33 30 31.676 30 30C30 28.324 31.324 27 33 27Z" fill="#DE3B76"/>
</svg>
