<svg xmlns="http://www.w3.org/2000/svg" width="24" height="24" viewBox="0 0 24 24">
    <g fill="none" fill-rule="evenodd">
        <g>
            <g>
                <path fill="#384202" d="M12 2.25c-1.646 0-2.97 1.283-3.855 3.047-.006.017-.006.03-.012.047-2.156-.264-4.067 0-5.168 1.242-.557.633-.78 1.47-.697 2.297.082.82.433 1.652.966 2.478.141.211.329.428.493.639-.164.21-.352.428-.493.639-.533.826-.884 1.658-.966 2.478-.082.826.14 1.664.697 2.297 1.096 1.242 3.012 1.506 5.168 1.242.006.018.006.03.012.047.884 1.764 2.209 3.047 3.855 3.047s2.97-1.283 3.85-3.047c.011-.017.011-.03.017-.047 2.156.264 4.072 0 5.168-1.242.557-.633.78-1.47.697-2.297-.082-.82-.433-1.652-.966-2.478-.141-.211-.328-.428-.493-.639.165-.21.352-.428.493-.639.533-.826.884-1.658.966-2.478.082-.826-.14-1.664-.697-2.297-1.096-1.242-3.012-1.506-5.168-1.242-.006-.018-.006-.03-.017-.047C14.97 3.533 13.646 2.25 12 2.25zm0 1.5c.762 0 1.594.639 2.297 1.875-.744.17-1.512.404-2.297.691-.78-.287-1.553-.521-2.297-.691C10.406 4.389 11.238 3.75 12 3.75zM6.691 6.762c.258-.006.557.023.844.047-.217.656-.375 1.37-.504 2.115-.879.615-1.635 1.265-2.297 1.928-.07-.1-.175-.211-.24-.311-.445-.686-.685-1.318-.732-1.81-.047-.493.052-.838.328-1.149.422-.475 1.342-.797 2.601-.82zm10.623 0c1.26.023 2.18.345 2.596.82.276.31.381.65.334 1.148-.053.499-.293 1.125-.738 1.811-.065.1-.17.211-.24.31-.662-.662-1.412-1.312-2.297-1.933-.13-.738-.287-1.453-.504-2.11.287-.023.586-.052.85-.046zm-8.261.27c.287.058.568.116.861.198-.363.176-.732.364-1.09.569.07-.264.14-.528.229-.768zm5.894 0c.088.24.158.503.229.761-.358-.2-.72-.387-1.09-.563.299-.082.58-.14.861-.199zM12 7.938c.885.358 1.775.762 2.66 1.272.328.2.621.404.932.61.094.697.158 1.417.158 2.179 0 .762-.064 1.482-.158 2.18-.31.205-.604.41-.938.61-.879.509-1.77.913-2.654 1.27-.885-.357-1.775-.761-2.654-1.27-.334-.2-.627-.405-.938-.61-.094-.698-.158-1.418-.158-2.18 0-.762.064-1.482.158-2.18.31-.205.604-.41.938-.61.879-.509 1.77-.913 2.654-1.27zm5.203 3.065c.399.328.756.662 1.078.996-.322.334-.68.662-1.078.996.012-.334.047-.656.047-.996 0-.34-.03-.668-.047-.996zm-10.406 0c-.012.334-.047.656-.047.996 0 .34.035.662.047.996-.399-.334-.756-.662-1.078-.996.322-.334.68-.662 1.078-.996zM12 11.25c-.416 0-.75.334-.75.75s.334.75.75.75.75-.334.75-.75-.334-.75-.75-.75zm-7.266 1.898c.662.663 1.418 1.313 2.297 1.928.13.744.287 1.46.504 2.115-1.681.123-2.941-.199-3.445-.767-.276-.317-.381-.656-.328-1.154.047-.499.287-1.125.732-1.811.065-.1.17-.211.24-.31zm14.532 0c.07.1.175.211.24.311.445.686.685 1.312.738 1.81.047.499-.058.838-.334 1.155-.504.568-1.764.89-3.445.767.217-.656.375-1.37.504-2.115.879-.615 1.635-1.265 2.297-1.928zM8.824 16.201c.358.205.72.393 1.09.574-.299.077-.58.135-.861.194-.088-.24-.158-.504-.229-.768zm6.352 0c-.07.264-.14.528-.229.768-.281-.059-.562-.117-.861-.194.37-.181.732-.369 1.09-.574zM12 17.684c.785.287 1.553.521 2.297.691-.703 1.236-1.535 1.875-2.297 1.875-.762 0-1.594-.639-2.297-1.875.744-.17 1.512-.404 2.297-.691z" transform="translate(-12 -12) translate(12 12)"/>
                <path d="M0 0H24V24H0z" transform="translate(-12 -12) translate(12 12)"/>
            </g>
        </g>
    </g>
</svg>
