
<svg width="72" height="72" viewBox="0 0 72 72" fill="none" xmlns="http://www.w3.org/2000/svg">
<rect width="72" height="72" rx="36" fill="var(--circle-color)"/>
<rect x="1.5" y="1.5" width="69" height="69" rx="34.5" stroke="var(--border-color)" stroke-opacity="0.88" stroke-width="3"/>
<path fill-rule="evenodd" clip-rule="evenodd" d="M37.0001 16.5C33.7081 16.5 31.0601 19.066 29.2901 22.594C29.2781 22.628 29.2781 22.654 29.2661 22.688C24.9541 22.16 21.1321 22.688 18.9301 25.172C17.8161 26.438 17.3701 28.112 17.5361 29.766C17.7001 31.406 18.4021 33.07 19.4681 34.722C19.7501 35.144 20.1261 35.578 20.4541 36C20.1261 36.42 19.7501 36.856 19.4681 37.278C18.4021 38.93 17.7001 40.594 17.5361 42.234C17.3721 43.886 17.8161 45.562 18.9301 46.828C21.1221 49.312 24.9541 49.84 29.2661 49.312C29.2781 49.348 29.2781 49.372 29.2901 49.406C31.0581 52.934 33.7081 55.5 37.0001 55.5C40.2921 55.5 42.9401 52.934 44.7001 49.406C44.7221 49.372 44.7221 49.346 44.7341 49.312C49.0461 49.84 52.8781 49.312 55.0701 46.828C56.1841 45.562 56.6301 43.888 56.4641 42.234C56.3001 40.594 55.5981 38.93 54.5321 37.278C54.2501 36.856 53.8761 36.422 53.5461 36C53.8761 35.58 54.2501 35.144 54.5321 34.722C55.5981 33.07 56.3001 31.406 56.4641 29.766C56.6281 28.114 56.1841 26.438 55.0701 25.172C52.8781 22.688 49.0461 22.16 44.7341 22.688C44.7221 22.652 44.7221 22.628 44.7001 22.594C42.9401 19.066 40.2921 16.5 37.0001 16.5ZM37.0001 19.5C38.5241 19.5 40.1881 20.778 41.5941 23.25C40.1061 23.59 38.5701 24.058 37.0001 24.632C35.4401 24.058 33.8941 23.59 32.4061 23.25C33.8121 20.778 35.4761 19.5 37.0001 19.5ZM26.3821 25.524C26.8981 25.512 27.4961 25.57 28.0701 25.618C27.6361 26.93 27.3201 28.358 27.0621 29.848C25.3041 31.078 23.7921 32.378 22.4681 33.704C22.3281 33.504 22.1181 33.282 21.9881 33.082C21.0981 31.71 20.6181 30.446 20.5241 29.462C20.4301 28.476 20.6281 27.786 21.1801 27.164C22.0241 26.214 23.8641 25.57 26.3821 25.524ZM47.6281 25.524C50.1481 25.57 51.9881 26.214 52.8201 27.164C53.3721 27.784 53.5821 28.464 53.4881 29.46C53.3821 30.458 52.9021 31.71 52.0121 33.082C51.8821 33.282 51.6721 33.504 51.5321 33.702C50.2081 32.378 48.7081 31.078 46.9381 29.836C46.6781 28.36 46.3641 26.93 45.9301 25.616C46.5041 25.57 47.1021 25.512 47.6301 25.524H47.6281ZM31.1061 26.064C31.6801 26.18 32.2421 26.296 32.8281 26.46C32.1021 26.812 31.3641 27.188 30.6481 27.598C30.7881 27.07 30.9281 26.542 31.1061 26.062V26.064ZM42.8941 26.064C43.0701 26.544 43.2101 27.07 43.3521 27.586C42.6361 27.186 41.9121 26.812 41.1721 26.46C41.7701 26.296 42.3321 26.18 42.8941 26.062V26.064ZM37.0001 27.876C38.7701 28.592 40.5501 29.4 42.3201 30.42C42.9761 30.82 43.5621 31.228 44.1841 31.64C44.3721 33.034 44.5001 34.474 44.5001 35.998C44.5001 37.522 44.3721 38.962 44.1841 40.358C43.5641 40.768 42.9761 41.178 42.3081 41.578C40.5501 42.596 38.7681 43.404 37.0001 44.118C35.2301 43.404 33.4501 42.596 31.6921 41.578C31.0241 41.178 30.4381 40.768 29.8161 40.358C29.6281 38.962 29.5001 37.522 29.5001 35.998C29.5001 34.474 29.6281 33.034 29.8161 31.638C30.4361 31.228 31.0241 30.818 31.6921 30.418C33.4501 29.4 35.2321 28.592 37.0001 27.878V27.876ZM47.4061 34.006C48.2041 34.662 48.9181 35.33 49.5621 35.998C48.9181 36.666 48.2021 37.322 47.4061 37.99C47.4301 37.322 47.5001 36.678 47.5001 35.998C47.5001 35.318 47.4401 34.662 47.4061 34.006ZM26.5941 34.006C26.5701 34.674 26.5001 35.318 26.5001 35.998C26.5001 36.678 26.5701 37.322 26.5941 37.99C25.7961 37.322 25.0821 36.666 24.4381 35.998C25.0821 35.33 25.7981 34.674 26.5941 34.006ZM37.0001 34.5C36.1681 34.5 35.5001 35.168 35.5001 36C35.5001 36.832 36.1681 37.5 37.0001 37.5C37.8321 37.5 38.5001 36.832 38.5001 36C38.5001 35.168 37.8321 34.5 37.0001 34.5ZM22.4681 38.296C23.7921 39.622 25.3041 40.922 27.0621 42.152C27.3221 43.64 27.6361 45.072 28.0701 46.382C24.7081 46.628 22.1881 45.984 21.1801 44.848C20.6281 44.214 20.4181 43.536 20.5241 42.54C20.6181 41.542 21.0981 40.29 21.9881 38.918C22.1181 38.718 22.3281 38.496 22.4681 38.298V38.296ZM51.5321 38.296C51.6721 38.496 51.8821 38.718 52.0121 38.918C52.9021 40.29 53.3821 41.542 53.4881 42.538C53.5821 43.536 53.3721 44.214 52.8201 44.848C51.8121 45.984 49.2921 46.628 45.9301 46.382C46.3641 45.07 46.6801 43.642 46.9381 42.152C48.6961 40.922 50.2081 39.622 51.5321 38.296ZM30.6481 44.402C31.3641 44.812 32.0881 45.188 32.8281 45.55C32.2301 45.704 31.6681 45.82 31.1061 45.938C30.9301 45.458 30.7901 44.93 30.6481 44.402ZM43.3521 44.402C43.2121 44.93 43.0721 45.458 42.8941 45.938C42.3321 45.82 41.7701 45.704 41.1721 45.55C41.9121 45.188 42.6361 44.812 43.3521 44.402ZM37.0001 47.368C38.5701 47.942 40.1061 48.41 41.5941 48.75C40.1881 51.222 38.5241 52.5 37.0001 52.5C35.4761 52.5 33.8121 51.222 32.4061 48.75C33.8941 48.41 35.4301 47.942 37.0001 47.368Z" fill="var(--svg-color)"/>
</svg>
