<svg xmlns="http://www.w3.org/2000/svg" width="24" height="24" viewBox="0 0 24 24">
    <g fill="none" fill-rule="evenodd">
        <g>
            <g>
                <path fill="#030F23" d="M13.876 1.5v8.003c.697-.242 1.447-.374 2.228-.374 3.737 0 6.75 3.013 6.75 6.75s-3.013 6.75-6.75 6.75c-3.736 0-6.75-3.013-6.75-6.75 0-1.34.388-2.587 1.057-3.635l-3.296.001-3.959 7.384H1.5l4.27-7.807c-1.17-.407-2.062-1.021-2.676-1.843-.615-.822-.922-1.826-.922-3.013 0-1.71.542-3.048 1.625-4.015 1.02-.91 2.43-1.392 4.233-1.446l.343-.005h5.503zm2.228 9.129c-.8 0-1.556.177-2.233.494l-.222.11-.054.03c-.058.03-.115.064-.172.097l.172-.098c-.08.044-.159.09-.236.137l.064-.039c-.064.038-.127.077-.188.117l.124-.078c-.094.057-.186.117-.275.18l-.109.079.109-.079c-.069.048-.136.098-.202.15l.093-.071c-.079.058-.156.119-.231.181l.138-.11c-.061.047-.122.096-.181.146l.043-.036c-.143.119-.278.245-.407.377-.918.944-1.483 2.235-1.483 3.663 0 2.908 2.342 5.25 5.25 5.25 2.909 0 5.25-2.342 5.25-5.25s-2.341-5.25-5.25-5.25zm2.253 2.792l1.061 1.06-3.823 3.824-2.78-2.78 1.06-1.061 1.72 1.72 2.762-2.763zM12.333 2.807h-4.01c-1.477 0-2.617.36-3.418 1.077-.8.718-1.201 1.741-1.201 3.07 0 1.195.375 2.158 1.127 2.888.697.679 1.64 1.042 2.828 1.09l.278.006 3.563-.001c.259-.242.537-.463.832-.661V2.807z" transform="translate(-12 -12) translate(12 12)"/>
                <path d="M0 0H24V24H0z" transform="translate(-12 -12) translate(12 12)"/>
            </g>
        </g>
    </g>
</svg>
