
<svg width="72" height="72" viewBox="0 0 72 72" fill="none" xmlns="http://www.w3.org/2000/svg">
<rect width="72" height="72" rx="36" fill="var(--circle-color)"/>
<rect x="1.5" y="1.5" width="69" height="69" rx="34.5" stroke="var(--border-color)" stroke-opacity="0.88" stroke-width="3"/>
<path fill-rule="evenodd" clip-rule="evenodd" d="M43.752 16V32.006C45.146 31.522 46.646 31.258 48.208 31.258C55.682 31.258 61.708 37.284 61.708 44.758C61.708 52.232 55.682 58.258 48.208 58.258C40.736 58.258 34.708 52.232 34.708 44.758C34.708 42.078 35.484 39.584 36.822 37.488L30.23 37.49L22.312 52.258H19L27.54 36.644C25.2 35.83 23.416 34.602 22.188 32.958C20.958 31.314 20.344 29.306 20.344 26.932C20.344 23.512 21.428 20.836 23.594 18.902C25.634 17.082 28.454 16.118 32.06 16.01L32.746 16H43.752ZM48.208 34.258C46.608 34.258 45.096 34.612 43.742 35.246L43.298 35.466L43.19 35.526C43.074 35.586 42.96 35.654 42.846 35.72L43.19 35.524C43.03 35.612 42.872 35.704 42.718 35.798L42.846 35.72C42.718 35.796 42.592 35.874 42.47 35.954L42.718 35.798C42.53 35.912 42.346 36.032 42.168 36.158L41.95 36.316L42.168 36.158C42.03 36.254 41.896 36.354 41.764 36.458L41.95 36.316C41.792 36.432 41.638 36.554 41.488 36.678L41.764 36.458C41.642 36.552 41.52 36.65 41.402 36.75L41.488 36.678C41.202 36.916 40.932 37.168 40.674 37.432C38.838 39.32 37.708 41.902 37.708 44.758C37.708 50.574 42.392 55.258 48.208 55.258C54.026 55.258 58.708 50.574 58.708 44.758C58.708 38.942 54.026 34.258 48.208 34.258ZM52.714 39.842L54.836 41.962L47.19 49.61L41.63 44.05L43.75 41.928L47.19 45.368L52.714 39.842ZM40.666 18.614H32.646C29.692 18.614 27.412 19.334 25.81 20.768C24.21 22.204 23.408 24.25 23.408 26.908C23.408 29.298 24.158 31.224 25.662 32.684C27.056 34.042 28.942 34.768 31.318 34.864L31.874 34.876L39 34.874C39.518 34.39 40.074 33.948 40.664 33.552V18.614H40.666Z" fill="var(--svg-color)"/>
</svg>
