<svg xmlns="http://www.w3.org/2000/svg" width="24" height="24" viewBox="0 0 24 24">
    <g fill="none" fill-rule="evenodd">
        <g>
            <g>
                <path fill="#030F23" d="M12 1.5c-1.646 0-3 1.354-3 3 0 .82.334 1.57.879 2.115v.006c-.334.211-.627.48-.89.785C8.94 5.801 7.616 4.5 6 4.5c-1.646 0-3 1.354-3 3 0 .803.328 1.535.844 2.074C2.455 10.342 1.5 11.807 1.5 13.5H3c0-1.664 1.336-3 3-3 .68 0 1.295.223 1.799.598L9 12v-1.5c0-1.664 1.336-3 3-3s3 1.336 3 3V12l1.201-.902c.504-.375 1.12-.598 1.799-.598 1.664 0 3 1.336 3 3h1.5c0-1.693-.955-3.158-2.344-3.926.516-.539.844-1.271.844-2.074 0-1.646-1.354-3-3-3-1.617 0-2.941 1.3-2.994 2.906-.258-.304-.55-.58-.885-.79C14.666 6.07 15 5.32 15 4.5c0-1.646-1.354-3-3-3zM12 3c.838 0 1.5.662 1.5 1.5S12.838 6 12 6s-1.5-.662-1.5-1.5S11.162 3 12 3zM6 6c.838 0 1.5.662 1.5 1.5S6.838 9 6 9s-1.5-.662-1.5-1.5S5.162 6 6 6zm12 0c.838 0 1.5.662 1.5 1.5S18.838 9 18 9s-1.5-.662-1.5-1.5S17.162 6 18 6zM7.5 12c-1.646 0-3 1.354-3 3 0 .803.328 1.535.844 2.074C3.955 17.842 3 19.307 3 21h1.5c0-1.664 1.336-3 3-3s3 1.336 3 3H12c0-1.693-.955-3.158-2.344-3.926.516-.539.844-1.271.844-2.074 0-1.646-1.354-3-3-3zm4.5 9h1.5c0-1.664 1.336-3 3-3s3 1.336 3 3H21c0-1.693-.955-3.158-2.344-3.926.516-.539.844-1.271.844-2.074 0-1.646-1.354-3-3-3s-3 1.354-3 3c0 .803.328 1.535.844 2.074C12.955 17.842 12 19.307 12 21zm-4.5-7.5c.838 0 1.5.662 1.5 1.5s-.662 1.5-1.5 1.5S6 15.838 6 15s.662-1.5 1.5-1.5zm9 0c.838 0 1.5.662 1.5 1.5s-.662 1.5-1.5 1.5S15 15.838 15 15s.662-1.5 1.5-1.5z" transform="translate(-12 -12) translate(12 12)"/>
                <path d="M0 0H24V24H0z" transform="translate(-12 -12) translate(12 12)"/>
            </g>
        </g>
    </g>
</svg>
