
<svg width="72" height="72" viewBox="0 0 72 72" fill="none" xmlns="http://www.w3.org/2000/svg">
<rect width="72" height="72" rx="36" fill="var(--circle-color)"/>
<rect x="1.5" y="1.5" width="69" height="69" rx="34.5" stroke="var(--border-color)" stroke-opacity="0.88" stroke-width="3"/>
<path fill-rule="evenodd" clip-rule="evenodd" d="M36 15C32.708 15 30 17.708 30 21C30 22.64 30.668 24.14 31.758 25.23V25.242C31.09 25.664 30.504 26.202 29.978 26.812C29.88 23.602 27.232 21 24 21C20.708 21 18 23.708 18 27C18 28.606 18.656 30.07 19.688 31.148C16.91 32.684 15 35.614 15 39H18C18 35.672 20.672 33 24 33C25.36 33 26.59 33.446 27.598 34.196L30 36V33C30 29.672 32.672 27 36 27C39.328 27 42 29.672 42 33V36L44.402 34.196C45.41 33.446 46.642 33 48 33C51.328 33 54 35.672 54 39H57C57 35.614 55.09 32.684 52.312 31.148C53.344 30.07 54 28.606 54 27C54 23.708 51.292 21 48 21C44.766 21 42.118 23.6 42.012 26.812C41.496 26.204 40.912 25.652 40.242 25.232C41.332 24.14 42 22.64 42 21C42 17.708 39.292 15 36 15ZM36 18C37.676 18 39 19.324 39 21C39 22.676 37.676 24 36 24C34.324 24 33 22.676 33 21C33 19.324 34.324 18 36 18ZM24 24C25.676 24 27 25.324 27 27C27 28.676 25.676 30 24 30C22.324 30 21 28.676 21 27C21 25.324 22.324 24 24 24ZM48 24C49.676 24 51 25.324 51 27C51 28.676 49.676 30 48 30C46.324 30 45 28.676 45 27C45 25.324 46.324 24 48 24ZM27 36C23.708 36 21 38.708 21 42C21 43.606 21.656 45.07 22.688 46.148C19.91 47.684 18 50.614 18 54H21C21 50.672 23.672 48 27 48C30.328 48 33 50.672 33 54H36C36 50.614 34.09 47.684 31.312 46.148C32.344 45.07 33 43.606 33 42C33 38.708 30.292 36 27 36ZM36 54H39C39 50.672 41.672 48 45 48C48.328 48 51 50.672 51 54H54C54 50.614 52.09 47.684 49.312 46.148C50.344 45.07 51 43.606 51 42C51 38.708 48.292 36 45 36C41.708 36 39 38.708 39 42C39 43.606 39.656 45.07 40.688 46.148C37.91 47.684 36 50.614 36 54ZM27 39C28.676 39 30 40.324 30 42C30 43.676 28.676 45 27 45C25.324 45 24 43.676 24 42C24 40.324 25.324 39 27 39ZM45 39C46.676 39 48 40.324 48 42C48 43.676 46.676 45 45 45C43.324 45 42 43.676 42 42C42 40.324 43.324 39 45 39Z" fill="var(--svg-color)"/>
</svg>
