
<svg width="24" height="33" viewBox="0 0 24 33" fill="none" xmlns="http://www.w3.org/2000/svg">
<path d="M12 0.980957L24 16.981L12 32.981L0 16.981L12 0.980957Z" fill="url(#paint0_linear)"/>
<path d="M13.4969 17.1459L11.9219 13.0649C11.8752 12.9435 11.8262 12.8035 11.7749 12.6449C11.7236 12.4815 11.6746 12.3089 11.6279 12.1269C11.5299 12.5049 11.4296 12.8199 11.3269 13.0719L9.75192 17.1459H13.4969ZM16.3249 20.8699H15.2749C15.1536 20.8699 15.0556 20.8395 14.9809 20.7789C14.9062 20.7182 14.8503 20.6412 14.8129 20.5479L13.8749 18.1259H9.37392L8.43592 20.5479C8.40792 20.6319 8.35425 20.7065 8.27492 20.7719C8.19558 20.8372 8.09758 20.8699 7.98092 20.8699H6.93092L10.9419 10.8389H12.3139L16.3249 20.8699Z" fill="white"/>
<defs>
<linearGradient id="paint0_linear" x1="12" y1="0.980957" x2="12" y2="32.981" gradientUnits="userSpaceOnUse">
<stop stop-color="#4A98E0"/>
<stop offset="1" stop-color="#4A98E0" stop-opacity="0"/>
</linearGradient>
</defs>
</svg>
