
<svg width="24" height="33" viewBox="0 0 24 33" fill="none" xmlns="http://www.w3.org/2000/svg">
<path d="M12 0.980957L24 16.981L12 32.981L0 16.981L12 0.980957Z" fill="url(#paint0_linear)"/>
<path d="M12.6909 20.7919C13.0782 20.7919 13.4119 20.7475 13.6919 20.6589C13.9719 20.5702 14.2006 20.4465 14.3779 20.2879C14.5599 20.1245 14.6929 19.9332 14.7769 19.7139C14.8609 19.4899 14.9029 19.2449 14.9029 18.9789C14.9029 18.4609 14.7186 18.0525 14.3499 17.7539C13.9812 17.4505 13.4282 17.2989 12.6909 17.2989H10.5209V20.7919H12.6909ZM10.5209 12.9099V16.3329H12.3129C12.6956 16.3329 13.0269 16.2909 13.3069 16.2069C13.5916 16.1229 13.8249 16.0062 14.0069 15.8569C14.1936 15.7075 14.3312 15.5279 14.4199 15.3179C14.5086 15.1032 14.5529 14.8699 14.5529 14.6179C14.5529 14.0252 14.3756 13.5935 14.0209 13.3229C13.6662 13.0475 13.1156 12.9099 12.3689 12.9099H10.5209ZM12.3689 11.8389C12.9849 11.8389 13.5146 11.8995 13.9579 12.0209C14.4059 12.1422 14.7722 12.3149 15.0569 12.5389C15.3462 12.7629 15.5586 13.0382 15.6939 13.3649C15.8292 13.6869 15.8969 14.0509 15.8969 14.4569C15.8969 14.7042 15.8572 14.9422 15.7779 15.1709C15.7032 15.3949 15.5889 15.6049 15.4349 15.8009C15.2809 15.9969 15.0849 16.1742 14.8469 16.3329C14.6136 16.4869 14.3382 16.6129 14.0209 16.7109C14.7582 16.8509 15.3112 17.1145 15.6799 17.5019C16.0532 17.8845 16.2399 18.3885 16.2399 19.0139C16.2399 19.4385 16.1606 19.8259 16.0019 20.1759C15.8479 20.5259 15.6192 20.8269 15.3159 21.0789C15.0172 21.3309 14.6486 21.5269 14.2099 21.6669C13.7712 21.8022 13.2719 21.8699 12.7119 21.8699H9.16992V11.8389H12.3689Z" fill="white"/>
<defs>
<linearGradient id="paint0_linear" x1="12" y1="0.980957" x2="12" y2="32.981" gradientUnits="userSpaceOnUse">
<stop stop-color="#85AF12"/>
<stop offset="0.0001" stop-color="#FF8D3C"/>
<stop offset="1" stop-color="#FF8D3C" stop-opacity="0"/>
</linearGradient>
</defs>
</svg>
