
<svg width="24" height="33" viewBox="0 0 24 33" fill="none" xmlns="http://www.w3.org/2000/svg">
<path d="M12 0.980957L24 16.981L12 32.981L0 16.981L12 0.980957Z" fill="url(#paint0_linear)"/>
<path d="M15.2119 19.7979C15.2866 19.7979 15.3519 19.8282 15.4079 19.8889L15.9469 20.4699C15.5362 20.9459 15.0369 21.3169 14.4489 21.5829C13.8656 21.8489 13.1586 21.9819 12.3279 21.9819C11.6092 21.9819 10.9559 21.8582 10.3679 21.6109C9.77992 21.3589 9.27825 21.0089 8.86292 20.5609C8.44758 20.1082 8.12558 19.5669 7.89692 18.9369C7.66825 18.3069 7.55392 17.6139 7.55392 16.8579C7.55392 16.1019 7.67292 15.4089 7.91092 14.7789C8.14892 14.1489 8.48258 13.6075 8.91192 13.1549C9.34592 12.7022 9.86392 12.3522 10.4659 12.1049C11.0679 11.8529 11.7329 11.7269 12.4609 11.7269C13.1749 11.7269 13.8049 11.8412 14.3509 12.0699C14.8969 12.2985 15.3776 12.6089 15.7929 13.0009L15.3449 13.6239C15.3169 13.6705 15.2796 13.7102 15.2329 13.7429C15.1909 13.7709 15.1326 13.7849 15.0579 13.7849C14.9739 13.7849 14.8712 13.7405 14.7499 13.6519C14.6286 13.5585 14.4699 13.4559 14.2739 13.3439C14.0779 13.2319 13.8329 13.1315 13.5389 13.0429C13.2449 12.9495 12.8832 12.9029 12.4539 12.9029C11.9359 12.9029 11.4622 12.9939 11.0329 13.1759C10.6036 13.3532 10.2326 13.6122 9.91992 13.9529C9.61192 14.2935 9.37158 14.7089 9.19892 15.1989C9.02625 15.6889 8.93992 16.2419 8.93992 16.8579C8.93992 17.4832 9.02858 18.0409 9.20592 18.5309C9.38792 19.0209 9.63292 19.4362 9.94092 19.7769C10.2536 20.1129 10.6199 20.3695 11.0399 20.5469C11.4646 20.7242 11.9219 20.8129 12.4119 20.8129C12.7106 20.8129 12.9789 20.7965 13.2169 20.7639C13.4596 20.7265 13.6812 20.6705 13.8819 20.5959C14.0872 20.5212 14.2762 20.4279 14.4489 20.3159C14.6262 20.1992 14.8012 20.0615 14.9739 19.9029C15.0532 19.8329 15.1326 19.7979 15.2119 19.7979Z" fill="white"/>
<defs>
<linearGradient id="paint0_linear" x1="12" y1="0.980957" x2="12" y2="32.981" gradientUnits="userSpaceOnUse">
<stop stop-color="#FB5B69"/>
<stop offset="1" stop-color="#FB5B69" stop-opacity="0"/>
</linearGradient>
</defs>
</svg>
